<svg xmlns="http://www.w3.org/2000/svg" viewBox="0 0 1024 768" xml:space="preserve">
  <path fill="#fff" d="M634.53 326.11c-7.92 0-15.407 1.5854-22.607 4.6094-6.912 2.88-13.104 7.0548-18.432 12.383-5.328 5.328-9.5048 11.377-12.385 18.289-3.024 7.2-4.4629 14.687-4.4629 22.607s1.4389 15.409 4.4629 22.465c2.88 7.056 7.0568 13.104 12.385 18.432 5.328 5.328 11.52 9.5028 18.432 12.383 7.2 3.024 14.687 4.6094 22.607 4.6094 6.48 0 12.817-1.008 18.865-3.168 5.904-2.016 11.375-5.0412 16.271-8.7852 1.584-1.152 2.4483-2.736 2.7363-4.752s-.1454-3.7441-1.4414-5.3281c-1.152-1.584-2.736-2.4483-4.752-2.7363s-3.7441.1454-5.3281 1.4414c-7.776 5.904-16.56 8.9277-26.352 8.9277-12.096 0-22.32-4.3204-30.816-12.816-8.496-8.496-12.672-18.72-12.672-30.672s4.1759-22.32 12.672-30.816c8.496-8.496 18.72-12.672 30.816-12.672 9.936 0 18.865 3.0248 26.641 9.2168 1.584 1.296 3.4561 1.7274 5.3281 1.4394 2.016-.144 3.6005-1.1523 4.8965-2.7363 1.152-1.44 1.7274-3.3121 1.4394-5.3281-.288-1.872-1.1523-3.456-2.7363-4.752-4.896-3.888-10.512-6.9117-16.416-8.9277-6.192-2.16-12.672-3.3125-19.152-3.3125zm-413.06 1.7285c-2.16 0-3.8881.7202-5.3281 2.1602s-2.1602 3.1681-2.1602 5.3281v97.488c0 2.16.7202 3.8881 2.1602 5.3281s3.1681 2.1602 5.3281 2.1602 3.8881-.7202 5.3281-2.1602 2.1602-3.1681 2.1602-5.3281v-31.54h21.312c7.056 0 13.392-1.4394 19.008-4.6074 5.616-3.024 9.9355-7.3444 13.104-12.816 3.168-5.472 4.752-11.663 4.752-18.719 0-7.2-1.584-13.537-4.752-19.297-3.168-5.616-7.4875-10.08-13.104-13.248-5.616-3.168-11.952-4.752-19.008-4.752zm119.72 0c-2.016 0-3.601.7202-5.041 2.1602s-2.1582 3.0231-2.1582 5.0391v98.209c0 2.016.7182 3.7431 2.1582 5.0391 1.44 1.44 3.025 2.1602 5.041 2.1602s3.7431-.7202 5.0391-2.1602c1.44-1.296 2.1602-3.0231 2.1602-5.0391v-91.008h20.881c5.616 0 10.511 2.0149 14.543 6.0469s6.0488 8.7849 6.0488 14.545c0 5.04-1.7285 9.504-4.8965 13.248s-7.1992 6.0481-11.951 6.9121l-2.5918.2871c-2.736.288-4.7518 1.7278-5.7598 4.1758-1.296 2.448-1.0078 4.8966.5762 7.0566l29.807 42.912c1.296 2.016 3.3123 3.168 5.9043 3.168 1.44 0 2.7352-.431 4.0312-1.2949 1.584-1.152 2.5934-2.736 3.0254-4.752.288-1.872-.0004-3.744-1.1523-5.328l-23.76-34.273c5.04-2.16 9.2164-5.328 12.816-9.504 5.616-6.48 8.3516-14.111 8.3516-22.607 0-9.648-3.4566-17.856-10.225-24.768-6.912-6.768-15.12-10.225-24.768-10.225zm150.07 0c-3.312 0-5.6147 1.729-7.0547 5.041l-40.465 96.623c-.576 1.296-.7207 2.4485-.7207 3.3125 0 2.16.5776 3.8881 2.0176 5.3281s3.1681 2.1602 5.3281 2.1602c1.44 0 2.7352-.2883 4.0312-1.1524 1.152-.864 2.1589-1.873 2.8789-3.457l34.273-83.807 33.695 83.807c.432 1.44 1.4403 2.593 2.7363 3.457s2.5918 1.1524 4.1758 1.1524c2.016 0 3.8881-.7202 5.3281-2.1602s2.1602-3.1676 2.1602-5.1836c0-.864-.2887-1.872-.7207-3.168l-40.607-96.912c-1.296-3.312-3.6006-5.041-7.0566-5.041zm270.38 0c-3.312 0-5.6147 1.729-7.0547 5.041l-40.465 96.623c-.576 1.296-.7207 2.4485-.7207 3.3125 0 2.16.5776 3.8881 2.0176 5.3281s3.1681 2.1602 5.3281 2.1602c1.44 0 2.7352-.2883 4.0312-1.1524 1.152-.864 2.1589-1.873 2.8789-3.457l34.273-83.807 33.695 83.807c.432 1.44 1.4403 2.593 2.7363 3.457s2.5918 1.1524 4.1758 1.1524c2.016 0 3.8881-.7202 5.3281-2.1602s2.1602-3.1676 2.1602-5.1836c0-.864-.2887-1.872-.7207-3.168l-40.607-96.912c-1.296-3.312-3.6006-5.041-7.0566-5.041zm-532.67 13.824h21.312c6.48 0 11.807 2.303 16.127 6.623 4.176 4.464 6.3359 10.082 6.3359 16.85 0 6.624-2.1599 11.951-6.3359 16.127-4.32 4.176-9.647 6.1914-16.127 6.1914H228.97z"/>
</svg>
